<?xml version="1.0" ?><svg data-name="Layer 3" id="Layer_3" viewBox="0 0 1000 1000" xmlns="http://www.w3.org/2000/svg"><title/><path d="M775.6977,709.0383C730.07,659.4008,667.115,626.3742,598.4213,616.0355a6.5669,6.5669,0,0,1-4.9083-6.362V571.62c63.3816-2.7867,145.8106-16.9575,178.3182-79.1289,27.849-53.2622,38.0979-99.5246,1.87-139.1069-16.9242-18.4914-23.5028-43.93-29.5083-68.2673-14.3525-58.1631-20.8551-125.07-67.0086-172.8338-10.3616-10.7229-20.8122-20.7444-32.711-27.6564l-1.0639-.4432c-35.9524-25.2581-84.55-36.301-130.6856-50.5613C408.392,1.3741,387.7334,62.9392,387.2337,73.7955l-.0356,1.46-.8218.027c-26.5236,1.169-45.1824,17.9813-63.5611,37.0011-46.1535,47.7637-52.6561,114.6707-67.0086,172.8338-6.0055,24.3372-12.5841,49.7759-29.5083,68.2673-36.2274,39.5823-25.9785,85.8447,1.87,139.1069,32.5076,62.1714,114.9366,76.3422,178.3182,79.1289v38.0534a6.5669,6.5669,0,0,1-4.9083,6.362c-68.6937,10.3387-131.649,43.3653-177.2769,93.0028-46.1611,50.217-71.5831,114.4044-71.5831,180.7389v84.0857a1.7653,1.7653,0,0,0,1.7649,1.7652H845.5159a1.7657,1.7657,0,0,0,1.7654-1.7652V889.7772C847.2813,823.4427,821.8593,759.2553,775.6977,709.0383Zm-104.7036-306.56V326.5734h2.7573a30.3351,30.3351,0,0,1,30.3352,30.3351v18.8568A32.484,32.484,0,0,1,671.96,408.2448l0,.0092-.2056-.0038c-.0527,0-.1045.0038-.1574.0038l-.7112-.0158C670.95,406.3251,670.9941,404.407,670.9941,402.4787ZM328.4022,408.254h-.363l0-.0092a32.484,32.484,0,0,1-32.1262-32.4795V356.9085a30.3351,30.3351,0,0,1,30.3352-30.3351h2.7583v75.9053c0,1.9337.044,3.857.1081,5.7753Zm4.1342-5.7753V326.0573c7.5667-2.1772,16.6727-4.55,19.6011-12.4367,1.5078-4.06,1.6933-8.4716,1.94-12.7959a372.6912,372.6912,0,0,1,6.5694-51.2239c2.4323-12.279,3.6749-27.0225,13.0611-36.3481,3.6935-3.67,8.12-3.7326,12.8935-4.7879l2.4807-.5484c-3.0337,69.821,44.2961,72.7067,97.3327,86.7146,27.6226,7.2959,56.7918,34.0954,81.2028,39.5171a19.5638,19.5638,0,0,0-1.0936,6.5589c0,7.25,3.6355,13.1264,8.12,13.1264s8.12-5.8769,8.12-13.1264a20.3834,20.3834,0,0,0-.5187-4.5818c50.14,3.9328,70.7211-25.1418,76.679-81.5405,0,0-2.1712,50.3747,8.54,69.3123v78.5817c0,92.34-75.1239,167.4635-167.4636,167.4635A167.58,167.58,0,0,1,332.5364,402.4787ZM500,698.5819c-65.1,0-122.4632-25.5163-156.2444-64.284a306.1783,306.1783,0,0,1,58.4355-14.7843c.056-.0087.111-.0195.1651-.0331a10.0925,10.0925,0,0,0,7.66-9.807v-23.385c16.7583,18.1038,57.0551,25.0313,100.7482,15.3279,36.6782-8.1456,66.2242-25.8967,79.2176-45.2849v53.342a10.0935,10.0935,0,0,0,7.6609,9.807c.0546.0136.11.0244.1656.0331a306.19,306.19,0,0,1,58.4362,14.7845C622.464,673.066,565.1,698.5819,500,698.5819Z"/><path d="M499.999,485.0211a43.307,43.307,0,0,0,43.2571-43.2581,1.7656,1.7656,0,0,0-1.7653-1.7653H458.5063a1.7653,1.7653,0,0,0-1.7648,1.7653A43.3068,43.3068,0,0,0,499.999,485.0211ZM460.31,443.5283h79.3776a39.6668,39.6668,0,0,1-.5784,5.1733c-3.9384,2.7055-14.1318,6.7651-39.8657,6.7651-24.7178,0-34.474-3.745-38.3-6.4385A39.67,39.67,0,0,1,460.31,443.5283Z"/><ellipse cx="425.3564" cy="340.707" rx="8.1199" ry="13.1264"/><path d="M441.29,309.8508a1.7647,1.7647,0,0,0,1.4079-3.2365,39.4361,39.4361,0,0,0-51.8362,20.4113,1.7648,1.7648,0,1,0,3.2366,1.408A35.8643,35.8643,0,0,1,441.29,309.8508Z"/><path d="M495.1117,402.9h9.7771a12.7813,12.7813,0,0,0,12.767-12.767,1.7653,1.7653,0,1,0-3.53,0,9.2465,9.2465,0,0,1-9.2365,9.2365h-9.7771a9.2473,9.2473,0,0,1-9.2375-9.2365,1.7648,1.7648,0,1,0-3.5295,0A12.7813,12.7813,0,0,0,495.1117,402.9Z"/></svg>