<?xml version="1.0" ?><svg data-name="Layer 3" id="Layer_3" viewBox="0 0 1000 1000" xmlns="http://www.w3.org/2000/svg"><title/><path d="M154.484,982.9081H845.516a1.7657,1.7657,0,0,0,1.7653-1.7653V897.0571c0-66.3344-25.422-130.5219-71.5836-180.7388a296.3539,296.3539,0,0,0-101.8623-71.6141l-.0137-.0263a1.7732,1.7732,0,0,0-.8821-.8179,312.8935,312.8935,0,0,0-72.902-20.2839c-.5394-.0841-1.0759-.1793-1.6163-.2606a6.567,6.567,0,0,1-4.9083-6.362V557.9969a161.1324,161.1324,0,0,0,77.4812-137.6383v-2.38h.6036a34.2927,34.2927,0,0,0,34.2544-34.2533v-18.857A32.1371,32.1371,0,0,0,687.07,335.6732l8.4848-66.8338.0657-.5143a41.2219,41.2219,0,0,0,25.53-61.8846l.25-.1989a41.214,41.214,0,0,0-7.087-68.9814l-.0219-.113a41.64,41.64,0,0,0,.2235-4.3191,41.2212,41.2212,0,0,0-28.4-39.1751l.0073-.191q.0394-.9135.04-1.8371a41.24,41.24,0,0,0-48.0272-40.6407l-.0268-.1615a41.2145,41.2145,0,0,0-37.9655-25.165,40.36,40.36,0,0,0-21.6129,6.62l-.4041.2572a41.2292,41.2292,0,0,0-47.8465-6.3138l-.1777.0978a41.207,41.207,0,0,0-56.8391,4.6639l-.3193-.2826a41.2078,41.2078,0,0,0-58.4894,6.1855l-.1072-.0524a41.2375,41.2375,0,0,0-53.1594,14.8791l-.1212-.0295a41.24,41.24,0,0,0-50.8825,46.24l-.0833.0537a41.206,41.206,0,0,0-18.9474,39.4623l-1.0876.362a41.2134,41.2134,0,0,0-5.8066,68.6387l-.0818.1321a41.2267,41.2267,0,0,0,20.0341,60.0143l.1081.7548,8.6716,68.3048a32.1375,32.1375,0,0,0-18.8428,29.2227v18.857a34.2927,34.2927,0,0,0,34.2544,34.2533h.6036v2.38A161.1324,161.1324,0,0,0,406.487,557.9969v58.9566a6.567,6.567,0,0,1-4.9083,6.362C332.885,633.6541,269.93,666.6807,224.3023,716.3183c-46.1616,50.2169-71.5836,114.4044-71.5836,180.7388v84.0857A1.7657,1.7657,0,0,0,154.484,982.9081Zm516.51-645.48h10.693a28.616,28.616,0,0,1,20.6344,27.4406v18.857a30.7585,30.7585,0,0,1-30.7238,30.7237h-.6036ZM600.8327,627.2792a305.6816,305.6816,0,0,1,70.44,20.1594l24.8437,48.26L594.7632,717.984a1.7622,1.7622,0,0,0-1.1616.8626L508.141,871.7633Zm-271.8269-212.83h-.6036a30.7585,30.7585,0,0,1-30.7238-30.7237v-18.857a28.616,28.616,0,0,1,20.6344-27.4406h10.693Zm3.5306,5.9093V329.9751l17.8395-46.0742.0267.0046a33.7348,33.7348,0,0,0,48.8879-1.2416l.0657-.0736a33.735,33.735,0,0,0,49.3753.8867l.4167.4285a33.7347,33.7347,0,0,0,46.3042,1.3254l.1426.1386a33.7373,33.7373,0,0,0,49.2248-4.9987l.1227.1659a33.7372,33.7372,0,0,0,52.5811,1.2775l.1606-.192a33.7357,33.7357,0,0,0,51.0222.9859l.6-.7469.298,1.5548,17.8594,46.52v90.4229c0,86.87-70.6732,157.5432-157.5437,157.5432H490.08C403.21,577.9018,332.5364,507.2286,332.5364,420.3586Zm77.4812,196.5949V594.8993c16.8307,18.007,57.0352,24.88,100.6238,15.2,36.564-8.12,66.2658-25.786,79.341-45.1033v51.9577a10.0864,10.0864,0,0,0,7.3109,9.7037l-96.13,253.5539L404.7247,625.8426A10.0919,10.0919,0,0,0,410.0176,616.9535ZM331.4157,647.038a311.4792,311.4792,0,0,1,70.1347-19.61l92.7009,244.51L408.7908,719.0208a1.76,1.76,0,0,0-1.1616-.8627L306.2751,695.8724Z"/><path d="M495.1111,430.5716h9.7778a12.7815,12.7815,0,0,0,12.767-12.767,1.7653,1.7653,0,0,0-3.5306,0,9.2472,9.2472,0,0,1-9.2364,9.2374h-9.7778a9.2472,9.2472,0,0,1-9.2364-9.2374,1.7653,1.7653,0,0,0-3.5306,0A12.7815,12.7815,0,0,0,495.1111,430.5716Z"/><ellipse cx="425.23" cy="368.3785" rx="8.1201" ry="13.1263"/><path d="M574.5173,355.2522c-4.4843,0-8.12,5.8769-8.12,13.1263s3.6353,13.1264,8.12,13.1264,8.12-5.8769,8.12-13.1264S579.0021,355.2522,574.5173,355.2522Z"/><path d="M552.9618,335.0811c19.9771-9.0616,36.5571-6.6659,50.6872,7.3207a1.7647,1.7647,0,0,0,2.483-2.5082c-15.2918-15.1384-33.16-17.763-54.6288-8.0266a1.7648,1.7648,0,1,0,1.4586,3.2141Z"/><path d="M448.4968,331.867c-21.4669-9.7369-39.337-7.1123-54.6288,8.0266a1.7647,1.7647,0,1,0,2.483,2.5082c14.1282-13.9875,30.7081-16.3818,50.6872-7.3207a1.7648,1.7648,0,1,0,1.4586-3.2141Z"/><path d="M543.9552,463.3133a1.7653,1.7653,0,0,0-1.7653-1.7648H459.2054a1.7653,1.7653,0,0,0-1.7653,1.7648,43.2576,43.2576,0,1,0,86.5151,0Zm-82.3131,7.2648a39.7,39.7,0,0,1-.6334-5.5h79.3779a39.5631,39.5631,0,0,1-.5784,5.1734c-3.938,2.7055-14.1316,6.7653-39.8661,6.7653C475.224,477.0168,465.4682,473.2717,461.6421,470.5781Z"/></svg>